<mxfile host="Electron" agent="Mozilla/5.0 (Windows NT 10.0; Win64; x64) AppleWebKit/537.36 (KHTML, like Gecko) draw.io/24.7.17 Chrome/128.0.6613.36 Electron/32.0.1 Safari/537.36" version="24.7.17">
  <diagram name="Страница — 1" id="pZ3wCIirRekd0yK6G9h5">
    <mxGraphModel dx="1462" dy="382" grid="1" gridSize="10" guides="1" tooltips="1" connect="1" arrows="1" fold="1" page="1" pageScale="1" pageWidth="827" pageHeight="1169" math="0" shadow="0">
      <root>
        <mxCell id="0" />
        <mxCell id="1" parent="0" />
        <mxCell id="bVtrkdLBt1H4hFdFJ2Kr-3" value="" style="edgeStyle=orthogonalEdgeStyle;rounded=0;orthogonalLoop=1;jettySize=auto;html=1;" parent="1" source="bVtrkdLBt1H4hFdFJ2Kr-1" target="bVtrkdLBt1H4hFdFJ2Kr-2" edge="1">
          <mxGeometry relative="1" as="geometry" />
        </mxCell>
        <mxCell id="bVtrkdLBt1H4hFdFJ2Kr-1" value="User" style="rounded=1;whiteSpace=wrap;html=1;" parent="1" vertex="1">
          <mxGeometry x="360" y="80" width="120" height="60" as="geometry" />
        </mxCell>
        <mxCell id="bVtrkdLBt1H4hFdFJ2Kr-5" value="" style="edgeStyle=orthogonalEdgeStyle;rounded=0;orthogonalLoop=1;jettySize=auto;html=1;" parent="1" source="bVtrkdLBt1H4hFdFJ2Kr-2" target="bVtrkdLBt1H4hFdFJ2Kr-4" edge="1">
          <mxGeometry relative="1" as="geometry" />
        </mxCell>
        <mxCell id="bVtrkdLBt1H4hFdFJ2Kr-9" value="" style="edgeStyle=orthogonalEdgeStyle;rounded=0;orthogonalLoop=1;jettySize=auto;html=1;" parent="1" source="bVtrkdLBt1H4hFdFJ2Kr-2" edge="1">
          <mxGeometry relative="1" as="geometry">
            <mxPoint x="280" y="230" as="targetPoint" />
          </mxGeometry>
        </mxCell>
        <mxCell id="bVtrkdLBt1H4hFdFJ2Kr-2" value="User&lt;div&gt;Middleware&lt;/div&gt;" style="shape=hexagon;perimeter=hexagonPerimeter2;whiteSpace=wrap;html=1;fixedSize=1;" parent="1" vertex="1">
          <mxGeometry x="360" y="190" width="120" height="80" as="geometry" />
        </mxCell>
        <mxCell id="rrn8K3da35dpbFHE1zJy-4" value="" style="edgeStyle=orthogonalEdgeStyle;rounded=0;orthogonalLoop=1;jettySize=auto;html=1;" parent="1" source="bVtrkdLBt1H4hFdFJ2Kr-4" target="rrn8K3da35dpbFHE1zJy-3" edge="1">
          <mxGeometry relative="1" as="geometry" />
        </mxCell>
        <mxCell id="bVtrkdLBt1H4hFdFJ2Kr-4" value="First start state" style="rounded=1;whiteSpace=wrap;html=1;" parent="1" vertex="1">
          <mxGeometry x="570" y="200" width="120" height="60" as="geometry" />
        </mxCell>
        <mxCell id="NDORi01rxfeiIZW5t3xb-2" value="" style="edgeStyle=orthogonalEdgeStyle;rounded=0;orthogonalLoop=1;jettySize=auto;html=1;" parent="1" source="bVtrkdLBt1H4hFdFJ2Kr-11" target="NDORi01rxfeiIZW5t3xb-1" edge="1">
          <mxGeometry relative="1" as="geometry" />
        </mxCell>
        <mxCell id="bVtrkdLBt1H4hFdFJ2Kr-11" value="Taxi order" style="rounded=1;whiteSpace=wrap;html=1;" parent="1" vertex="1">
          <mxGeometry x="160" y="200" width="120" height="60" as="geometry" />
        </mxCell>
        <mxCell id="rrn8K3da35dpbFHE1zJy-6" value="" style="edgeStyle=orthogonalEdgeStyle;rounded=0;orthogonalLoop=1;jettySize=auto;html=1;" parent="1" source="rrn8K3da35dpbFHE1zJy-3" edge="1">
          <mxGeometry relative="1" as="geometry">
            <mxPoint x="630" y="420" as="targetPoint" />
          </mxGeometry>
        </mxCell>
        <mxCell id="rrn8K3da35dpbFHE1zJy-3" value="1. Name" style="rounded=0;whiteSpace=wrap;html=1;" parent="1" vertex="1">
          <mxGeometry x="570" y="310" width="120" height="60" as="geometry" />
        </mxCell>
        <mxCell id="rrn8K3da35dpbFHE1zJy-9" value="2. Promocode" style="rounded=0;whiteSpace=wrap;html=1;" parent="1" vertex="1">
          <mxGeometry x="570" y="420" width="120" height="60" as="geometry" />
        </mxCell>
        <mxCell id="rrn8K3da35dpbFHE1zJy-12" value="Not registered" style="text;html=1;align=center;verticalAlign=middle;whiteSpace=wrap;rounded=0;" parent="1" vertex="1">
          <mxGeometry x="480" y="200" width="80" height="30" as="geometry" />
        </mxCell>
        <mxCell id="rrn8K3da35dpbFHE1zJy-13" value="Registered" style="text;html=1;align=center;verticalAlign=middle;whiteSpace=wrap;rounded=0;" parent="1" vertex="1">
          <mxGeometry x="280" y="200" width="80" height="30" as="geometry" />
        </mxCell>
        <mxCell id="NDORi01rxfeiIZW5t3xb-5" value="" style="edgeStyle=orthogonalEdgeStyle;rounded=0;orthogonalLoop=1;jettySize=auto;html=1;" parent="1" source="NDORi01rxfeiIZW5t3xb-1" target="NDORi01rxfeiIZW5t3xb-4" edge="1">
          <mxGeometry relative="1" as="geometry" />
        </mxCell>
        <mxCell id="RejdPmw4iYeP_jsZrdEX-12" style="edgeStyle=orthogonalEdgeStyle;rounded=0;orthogonalLoop=1;jettySize=auto;html=1;exitX=0;exitY=0.75;exitDx=0;exitDy=0;entryX=1;entryY=0.25;entryDx=0;entryDy=0;" parent="1" source="NDORi01rxfeiIZW5t3xb-1" target="RejdPmw4iYeP_jsZrdEX-1" edge="1">
          <mxGeometry relative="1" as="geometry" />
        </mxCell>
        <mxCell id="NDORi01rxfeiIZW5t3xb-1" value="1. From&lt;div&gt;Google Speech&lt;br&gt;&lt;/div&gt;" style="rounded=0;whiteSpace=wrap;html=1;" parent="1" vertex="1">
          <mxGeometry x="160" y="300" width="120" height="60" as="geometry" />
        </mxCell>
        <mxCell id="NDORi01rxfeiIZW5t3xb-3" value="Set state" style="text;html=1;align=center;verticalAlign=middle;whiteSpace=wrap;rounded=0;" parent="1" vertex="1">
          <mxGeometry x="230" y="270" width="50" height="20" as="geometry" />
        </mxCell>
        <mxCell id="RejdPmw4iYeP_jsZrdEX-13" style="edgeStyle=orthogonalEdgeStyle;rounded=0;orthogonalLoop=1;jettySize=auto;html=1;exitX=0;exitY=0.25;exitDx=0;exitDy=0;entryX=1;entryY=0.75;entryDx=0;entryDy=0;" parent="1" source="NDORi01rxfeiIZW5t3xb-4" target="RejdPmw4iYeP_jsZrdEX-1" edge="1">
          <mxGeometry relative="1" as="geometry" />
        </mxCell>
        <mxCell id="XAwSXA2oA-hd8PR_QSG4-2" value="" style="edgeStyle=orthogonalEdgeStyle;rounded=0;orthogonalLoop=1;jettySize=auto;html=1;" parent="1" source="NDORi01rxfeiIZW5t3xb-4" target="NDORi01rxfeiIZW5t3xb-10" edge="1">
          <mxGeometry relative="1" as="geometry" />
        </mxCell>
        <mxCell id="NDORi01rxfeiIZW5t3xb-4" value="2. To&lt;div&gt;Google Speech&lt;/div&gt;" style="rounded=0;whiteSpace=wrap;html=1;" parent="1" vertex="1">
          <mxGeometry x="160" y="400" width="120" height="60" as="geometry" />
        </mxCell>
        <mxCell id="XAwSXA2oA-hd8PR_QSG4-22" value="" style="edgeStyle=orthogonalEdgeStyle;rounded=0;orthogonalLoop=1;jettySize=auto;html=1;" parent="1" source="NDORi01rxfeiIZW5t3xb-8" target="XAwSXA2oA-hd8PR_QSG4-21" edge="1">
          <mxGeometry relative="1" as="geometry" />
        </mxCell>
        <mxCell id="NDORi01rxfeiIZW5t3xb-8" value="4. When" style="rounded=0;whiteSpace=wrap;html=1;" parent="1" vertex="1">
          <mxGeometry x="230" y="600" width="120" height="60" as="geometry" />
        </mxCell>
        <mxCell id="XAwSXA2oA-hd8PR_QSG4-6" style="edgeStyle=orthogonalEdgeStyle;rounded=0;orthogonalLoop=1;jettySize=auto;html=1;exitX=0.25;exitY=1;exitDx=0;exitDy=0;entryX=0.75;entryY=0;entryDx=0;entryDy=0;" parent="1" source="NDORi01rxfeiIZW5t3xb-10" target="2NCe5LqdP6LYV4s0Hcj8-1" edge="1">
          <mxGeometry relative="1" as="geometry">
            <Array as="points">
              <mxPoint x="190" y="580" />
              <mxPoint x="180" y="580" />
            </Array>
          </mxGeometry>
        </mxCell>
        <mxCell id="XAwSXA2oA-hd8PR_QSG4-7" style="edgeStyle=orthogonalEdgeStyle;rounded=0;orthogonalLoop=1;jettySize=auto;html=1;exitX=0.75;exitY=1;exitDx=0;exitDy=0;entryX=0.25;entryY=0;entryDx=0;entryDy=0;" parent="1" source="NDORi01rxfeiIZW5t3xb-10" target="NDORi01rxfeiIZW5t3xb-8" edge="1">
          <mxGeometry relative="1" as="geometry" />
        </mxCell>
        <mxCell id="NDORi01rxfeiIZW5t3xb-10" value="3. How many people" style="rounded=0;whiteSpace=wrap;html=1;" parent="1" vertex="1">
          <mxGeometry x="160" y="500" width="120" height="60" as="geometry" />
        </mxCell>
        <mxCell id="XAwSXA2oA-hd8PR_QSG4-20" value="" style="edgeStyle=orthogonalEdgeStyle;rounded=0;orthogonalLoop=1;jettySize=auto;html=1;" parent="1" source="2NCe5LqdP6LYV4s0Hcj8-1" target="RejdPmw4iYeP_jsZrdEX-17" edge="1">
          <mxGeometry relative="1" as="geometry" />
        </mxCell>
        <mxCell id="XAwSXA2oA-hd8PR_QSG4-24" style="edgeStyle=orthogonalEdgeStyle;rounded=0;orthogonalLoop=1;jettySize=auto;html=1;exitX=0;exitY=0.75;exitDx=0;exitDy=0;" parent="1" source="2NCe5LqdP6LYV4s0Hcj8-1" target="RejdPmw4iYeP_jsZrdEX-15" edge="1">
          <mxGeometry relative="1" as="geometry" />
        </mxCell>
        <mxCell id="XAwSXA2oA-hd8PR_QSG4-25" style="edgeStyle=orthogonalEdgeStyle;rounded=0;orthogonalLoop=1;jettySize=auto;html=1;exitX=0;exitY=0.5;exitDx=0;exitDy=0;" parent="1" source="2NCe5LqdP6LYV4s0Hcj8-1" target="RejdPmw4iYeP_jsZrdEX-7" edge="1">
          <mxGeometry relative="1" as="geometry" />
        </mxCell>
        <mxCell id="XAwSXA2oA-hd8PR_QSG4-26" style="edgeStyle=orthogonalEdgeStyle;rounded=0;orthogonalLoop=1;jettySize=auto;html=1;exitX=0;exitY=0.25;exitDx=0;exitDy=0;" parent="1" source="2NCe5LqdP6LYV4s0Hcj8-1" target="RejdPmw4iYeP_jsZrdEX-6" edge="1">
          <mxGeometry relative="1" as="geometry">
            <Array as="points">
              <mxPoint x="80" y="615" />
              <mxPoint x="80" y="510" />
            </Array>
          </mxGeometry>
        </mxCell>
        <mxCell id="2NCe5LqdP6LYV4s0Hcj8-1" value="Voiting (3 min)" style="rounded=0;whiteSpace=wrap;html=1;" parent="1" vertex="1">
          <mxGeometry x="90" y="600" width="120" height="60" as="geometry" />
        </mxCell>
        <mxCell id="RejdPmw4iYeP_jsZrdEX-1" value="Handbook (wait)&lt;div&gt;Top-places (LS)&lt;/div&gt;&lt;div&gt;Geo&lt;/div&gt;&lt;div&gt;Code (4/5) / QR (wait)&lt;/div&gt;" style="rounded=0;whiteSpace=wrap;html=1;" parent="1" vertex="1">
          <mxGeometry y="350" width="120" height="60" as="geometry" />
        </mxCell>
        <mxCell id="RejdPmw4iYeP_jsZrdEX-6" value="Continue wait&lt;div&gt;(+3 min)&lt;/div&gt;" style="rounded=0;whiteSpace=wrap;html=1;" parent="1" vertex="1">
          <mxGeometry x="-80" y="480" width="120" height="60" as="geometry" />
        </mxCell>
        <mxCell id="RejdPmw4iYeP_jsZrdEX-7" value="Cancel" style="rounded=0;whiteSpace=wrap;html=1;" parent="1" vertex="1">
          <mxGeometry x="-80" y="560" width="120" height="60" as="geometry" />
        </mxCell>
        <mxCell id="RejdPmw4iYeP_jsZrdEX-15" value="Timeout" style="rounded=0;whiteSpace=wrap;html=1;" parent="1" vertex="1">
          <mxGeometry x="-80" y="640" width="120" height="60" as="geometry" />
        </mxCell>
        <mxCell id="XAwSXA2oA-hd8PR_QSG4-19" style="edgeStyle=orthogonalEdgeStyle;rounded=0;orthogonalLoop=1;jettySize=auto;html=1;entryX=0.5;entryY=0;entryDx=0;entryDy=0;" parent="1" source="RejdPmw4iYeP_jsZrdEX-17" target="RejdPmw4iYeP_jsZrdEX-26" edge="1">
          <mxGeometry relative="1" as="geometry" />
        </mxCell>
        <mxCell id="RejdPmw4iYeP_jsZrdEX-17" value="Enter car code&lt;div&gt;(send a number)&lt;/div&gt;" style="rounded=0;whiteSpace=wrap;html=1;" parent="1" vertex="1">
          <mxGeometry x="90" y="700" width="120" height="60" as="geometry" />
        </mxCell>
        <mxCell id="RejdPmw4iYeP_jsZrdEX-32" value="Or if the driver entered the voting code" style="text;html=1;align=center;verticalAlign=middle;whiteSpace=wrap;rounded=0;" parent="1" vertex="1">
          <mxGeometry x="-180" y="735" width="230" height="30" as="geometry" />
        </mxCell>
        <mxCell id="RejdPmw4iYeP_jsZrdEX-33" value="" style="swimlane;startSize=0;" parent="1" vertex="1">
          <mxGeometry x="-600" y="795" width="970" height="190" as="geometry">
            <mxRectangle x="-600" y="680" width="50" height="40" as="alternateBounds" />
          </mxGeometry>
        </mxCell>
        <mxCell id="RejdPmw4iYeP_jsZrdEX-23" value="" style="edgeStyle=orthogonalEdgeStyle;rounded=0;orthogonalLoop=1;jettySize=auto;html=1;" parent="RejdPmw4iYeP_jsZrdEX-33" source="RejdPmw4iYeP_jsZrdEX-10" target="RejdPmw4iYeP_jsZrdEX-22" edge="1">
          <mxGeometry relative="1" as="geometry" />
        </mxCell>
        <mxCell id="RejdPmw4iYeP_jsZrdEX-25" value="" style="edgeStyle=orthogonalEdgeStyle;rounded=0;orthogonalLoop=1;jettySize=auto;html=1;" parent="RejdPmw4iYeP_jsZrdEX-33" source="RejdPmw4iYeP_jsZrdEX-22" target="RejdPmw4iYeP_jsZrdEX-24" edge="1">
          <mxGeometry relative="1" as="geometry" />
        </mxCell>
        <mxCell id="RejdPmw4iYeP_jsZrdEX-27" value="" style="edgeStyle=orthogonalEdgeStyle;rounded=0;orthogonalLoop=1;jettySize=auto;html=1;" parent="RejdPmw4iYeP_jsZrdEX-33" source="RejdPmw4iYeP_jsZrdEX-24" target="RejdPmw4iYeP_jsZrdEX-26" edge="1">
          <mxGeometry relative="1" as="geometry" />
        </mxCell>
        <mxCell id="RejdPmw4iYeP_jsZrdEX-29" value="" style="edgeStyle=orthogonalEdgeStyle;rounded=0;orthogonalLoop=1;jettySize=auto;html=1;" parent="RejdPmw4iYeP_jsZrdEX-33" source="RejdPmw4iYeP_jsZrdEX-26" target="RejdPmw4iYeP_jsZrdEX-28" edge="1">
          <mxGeometry relative="1" as="geometry" />
        </mxCell>
        <mxCell id="RejdPmw4iYeP_jsZrdEX-10" value="Search car" style="rounded=0;whiteSpace=wrap;html=1;" parent="RejdPmw4iYeP_jsZrdEX-33" vertex="1">
          <mxGeometry x="829.75" y="30" width="120" height="60" as="geometry" />
        </mxCell>
        <mxCell id="RejdPmw4iYeP_jsZrdEX-22" value="Order accepted&lt;div&gt;(show the driver&#39;s phone number)&lt;/div&gt;" style="rounded=0;whiteSpace=wrap;html=1;" parent="RejdPmw4iYeP_jsZrdEX-33" vertex="1">
          <mxGeometry x="669.75" y="30" width="120" height="60" as="geometry" />
        </mxCell>
        <mxCell id="RejdPmw4iYeP_jsZrdEX-24" value="The car has arrived" style="rounded=0;whiteSpace=wrap;html=1;" parent="RejdPmw4iYeP_jsZrdEX-33" vertex="1">
          <mxGeometry x="509.75" y="30" width="120" height="60" as="geometry" />
        </mxCell>
        <mxCell id="RejdPmw4iYeP_jsZrdEX-26" value="The drive has begun" style="rounded=0;whiteSpace=wrap;html=1;" parent="RejdPmw4iYeP_jsZrdEX-33" vertex="1">
          <mxGeometry x="349.75" y="30" width="120" height="60" as="geometry" />
        </mxCell>
        <mxCell id="RejdPmw4iYeP_jsZrdEX-37" value="" style="edgeStyle=orthogonalEdgeStyle;rounded=0;orthogonalLoop=1;jettySize=auto;html=1;" parent="RejdPmw4iYeP_jsZrdEX-33" source="RejdPmw4iYeP_jsZrdEX-28" target="RejdPmw4iYeP_jsZrdEX-36" edge="1">
          <mxGeometry relative="1" as="geometry" />
        </mxCell>
        <mxCell id="RejdPmw4iYeP_jsZrdEX-28" value="The drive is over" style="rounded=0;whiteSpace=wrap;html=1;" parent="RejdPmw4iYeP_jsZrdEX-33" vertex="1">
          <mxGeometry x="186.25" y="30" width="120" height="60" as="geometry" />
        </mxCell>
        <mxCell id="RejdPmw4iYeP_jsZrdEX-35" value="It is possible to cancel a ride at any time" style="text;html=1;align=center;verticalAlign=middle;whiteSpace=wrap;rounded=0;" parent="RejdPmw4iYeP_jsZrdEX-33" vertex="1">
          <mxGeometry x="420" width="234.75" height="30" as="geometry" />
        </mxCell>
        <mxCell id="RejdPmw4iYeP_jsZrdEX-36" value="Evaluate the driver" style="rounded=0;whiteSpace=wrap;html=1;" parent="RejdPmw4iYeP_jsZrdEX-33" vertex="1">
          <mxGeometry x="20.25" y="30" width="120" height="60" as="geometry" />
        </mxCell>
        <mxCell id="RejdPmw4iYeP_jsZrdEX-38" value="Chat mode&lt;div&gt;(closes at the end of the ride)&lt;/div&gt;" style="rounded=0;whiteSpace=wrap;html=1;" parent="RejdPmw4iYeP_jsZrdEX-33" vertex="1">
          <mxGeometry x="349.75" y="110" width="120" height="60" as="geometry" />
        </mxCell>
        <mxCell id="RejdPmw4iYeP_jsZrdEX-41" value="" style="edgeStyle=orthogonalEdgeStyle;rounded=0;orthogonalLoop=1;jettySize=auto;html=1;" parent="RejdPmw4iYeP_jsZrdEX-33" source="RejdPmw4iYeP_jsZrdEX-39" target="RejdPmw4iYeP_jsZrdEX-40" edge="1">
          <mxGeometry relative="1" as="geometry" />
        </mxCell>
        <mxCell id="RejdPmw4iYeP_jsZrdEX-39" value="Cancel" style="rounded=0;whiteSpace=wrap;html=1;" parent="RejdPmw4iYeP_jsZrdEX-33" vertex="1">
          <mxGeometry x="509.75" y="110" width="120" height="60" as="geometry" />
        </mxCell>
        <mxCell id="RejdPmw4iYeP_jsZrdEX-40" value="Choose a reason" style="rounded=0;whiteSpace=wrap;html=1;" parent="RejdPmw4iYeP_jsZrdEX-33" vertex="1">
          <mxGeometry x="669.75" y="110" width="120" height="60" as="geometry" />
        </mxCell>
        <mxCell id="XAwSXA2oA-hd8PR_QSG4-23" value="" style="edgeStyle=orthogonalEdgeStyle;rounded=0;orthogonalLoop=1;jettySize=auto;html=1;" parent="1" source="XAwSXA2oA-hd8PR_QSG4-21" target="RejdPmw4iYeP_jsZrdEX-10" edge="1">
          <mxGeometry relative="1" as="geometry" />
        </mxCell>
        <mxCell id="XAwSXA2oA-hd8PR_QSG4-21" value="5.&amp;nbsp;Order Confirmation" style="rounded=0;whiteSpace=wrap;html=1;" parent="1" vertex="1">
          <mxGeometry x="230" y="700" width="120" height="60" as="geometry" />
        </mxCell>
      </root>
    </mxGraphModel>
  </diagram>
</mxfile>
